<svg xmlns="http://www.w3.org/2000/svg" width="20" height="20" viewBox="0 0 20 20" fill="none">
  <path d="M19.6 10.23c0-.68-.06-1.18-.18-1.7H10v3.12h5.64c-.12.78-.62 1.95-1.77 2.74l-.02.1 2.56 1.98.18.02c1.66-1.53 2.61-3.78 2.61-6.26Z" fill="#4285F4"/>
  <path d="M10 20c2.37 0 4.36-.78 5.81-2.13l-2.77-2.15c-.74.52-1.73.88-3.04.88a5.27 5.27 0 0 1-4.98-3.63l-.09.01-2.67 2.07-.03.09A9.98 9.98 0 0 0 10 20Z" fill="#34A853"/>
  <path d="M5.02 12.97a6 6 0 0 1 0-3.94l-.01-.08-2.7-2.1-.09.04a10 10 0 0 0 0 8.23l2.8-2.15Z" fill="#FBBC05"/>
  <path d="M10 3.87c1.65 0 2.77.71 3.41 1.3l2.49-2.43C14.35.84 12.38 0 10 0A9.98 9.98 0 0 0 2.22 4.92l2.8 2.16A5.27 5.27 0 0 1 10 3.87Z" fill="#EA4335"/>
</svg>
